HIERARCHY
ROOT Hips
{
   OFFSET 0.00000 0.00000 0.00000
   CHANNELS 6 Xposition Yposition Zposition Zrotation Xrotation Yrotation
   JOINT Spine
   {
      OFFSET 0.000000 10.701450 0.000000
      CHANNELS 3 Zrotation Xrotation Yrotation
      JOINT Spine1
      {
         OFFSET -0.000000 23.091659 0.114894
         CHANNELS 3 Zrotation Xrotation Yrotation
         JOINT HEad
         {
            OFFSET 0.000000 7.860744 0.010206
            CHANNELS 3 Zrotation Xrotation Yrotation
            End Site
            {
               OFFSET -0.261000 11.496780 2.262555
            }
         }
         JOINT LeftShoulder1
         {
            OFFSET 8.091000 -0.326025 -0.198000
            CHANNELS 3 Zrotation Xrotation Yrotation
            JOINT LeftArm
            {
               OFFSET 9.254430 -0.003042 0.289908
               CHANNELS 3 Zrotation Xrotation Yrotation
               JOINT LeftForeArm
               {
                  OFFSET 29.490208 0.089226 -1.281906
                  CHANNELS 3 Zrotation Xrotation Yrotation
                  JOINT LeftHand
                  {
                     OFFSET 24.807870 0.076824 0.919944
                     CHANNELS 3 Zrotation Xrotation Yrotation
                     End Site
                     {
                        OFFSET 15.069871 -0.540000 1.352619
                     }
                  }
               }
            }
         }
         JOINT RightShoulder
         {
            OFFSET -8.091000 -0.326025 -0.198000
            CHANNELS 3 Zrotation Xrotation Yrotation
            JOINT RightArm
            {
               OFFSET -9.254430 -0.003042 0.289908
               CHANNELS 3 Zrotation Xrotation Yrotation
               JOINT RightForeArm
               {
                  OFFSET -29.607386 0.089226 -1.281906
                  CHANNELS 3 Zrotation Xrotation Yrotation
                  JOINT RightHand
                  {
                     OFFSET -24.742889 0.076824 0.919944
                     CHANNELS 3 Zrotation Xrotation Yrotation
                     End Site
                     {
                        OFFSET -14.968080 -0.540000 1.352619
                     }
                  }
               }
            }
         }
      }
   }
   JOINT LeftUpLeg
   {
      OFFSET 8.051219 -7.800363 0.091485
      CHANNELS 3 Zrotation Xrotation Yrotation
      JOINT LeftLeg
      {
         OFFSET 0.000000 -39.980428 1.235430
         CHANNELS 3 Zrotation Xrotation Yrotation
         JOINT LeftFoot
         {
            OFFSET -0.228195 -37.883157 -1.314531
            CHANNELS 3 Zrotation Xrotation Yrotation
            JOINT LeftToes
            {
               OFFSET -0.036000 -3.973581 7.649189
               CHANNELS 3 Zrotation Xrotation Yrotation
               End Site
               {
                  OFFSET 0.072000 -0.042705 8.801811
               }
            }
         }
      }
   }
   JOINT RightUpLeg
   {
      OFFSET -8.051219 -7.800363 0.091485
      CHANNELS 3 Zrotation Xrotation Yrotation
      JOINT RightLeg
      {
         OFFSET 0.000000 -39.980428 1.235430
         CHANNELS 3 Zrotation Xrotation Yrotation
         JOINT RightFoot
         {
            OFFSET 0.228195 -37.883157 -1.314531
            CHANNELS 3 Zrotation Xrotation Yrotation
            JOINT RightToes
            {
               OFFSET 0.036000 -3.973581 7.649189
               CHANNELS 3 Zrotation Xrotation Yrotation
               End Site
               {
                  OFFSET -0.072000 -0.123705 8.801811
               }
            }
         }
      }
   }
}
MOTION
Frames: 6
Frame Time: 0.016670
-90.759371 80.334653 14.478946 15.264482 21.858767 118.582616 0.653130 41.429110 222.906584 3.877276 6.488258 -221.616430 -43.254181 14.088428 5.197745 159.522428 -74.192199 133.634126 423.373483 -63.518300 432.555334 -1.215054 139.413641 -73.125043 -133.370030 -13.369331 -122.378412 -39.161740 77.932158 79.144967 111.830653 98.240072 176.765132 -0.731589 193.722647 77.782488 -14.997977 -23.342489 44.939820 25.687957 -10.068658 -71.064334 -25.081163 -7.090517 45.567187 8.434969 33.228826 27.673437 -62.902088 -18.404769 -6.175867 -45.430973 28.389495 -10.171553 -2.877063 14.315769 58.820005 -38.011820 6.693845 18.515651 13.224017 -35.024472 -49.746658
-90.876196 79.751958 17.139681 13.032881 20.044662 117.693066 -0.734951 39.222153 226.539193 5.669702 6.922549 -220.537328 -43.712015 14.283450 5.459551 171.220275 -72.434983 147.819296 437.580878 -65.391172 444.899316 -1.769621 149.226096 -74.710255 -134.985083 -12.111776 -123.889810 -39.756127 81.257661 81.452253 109.318045 102.606735 177.013150 -0.413161 198.011405 78.378087 -15.441029 -21.371534 42.654443 27.572589 -11.992186 -71.251762 -24.238519 -6.752190 41.571127 8.058348 36.002006 27.699240 -49.668552 -9.843191 -8.464020 -45.122528 28.043801 -4.991186 2.352169 11.768940 49.774826 -39.151519 4.654724 19.512790 13.032033 -36.692084 -45.893260
-90.914382 79.250883 19.594178 11.084790 18.534019 116.669644 -1.808647 36.565237 229.511240 6.452490 6.473888 -219.288428 -43.364028 15.038989 5.784977 180.855076 -70.721220 160.086438 452.304689 -67.045110 456.911187 -2.134926 157.930776 -75.607496 -135.479193 -11.273313 -124.666074 -40.575237 83.222570 83.493919 107.404752 105.769953 177.892345 -0.046092 200.967661 78.595820 -15.998673 -22.937302 42.795810 28.956570 -13.878017 -71.562549 -23.748718 -7.318417 38.005321 8.350095 36.966719 28.197176 -57.153363 -13.841130 -2.096870 -44.816775 27.579483 0.147400 6.427873 9.529786 41.916471 -38.353793 3.370294 20.708191 15.431057 -34.489190 -43.830745
-90.865372 78.848428 21.771757 8.933724 17.258864 116.192883 -3.053950 33.544176 231.623818 6.561965 5.879674 -218.295496 -42.582500 16.029675 6.273793 188.804720 -69.090068 170.320958 465.881848 -68.727481 467.763538 -2.907229 165.527749 -76.388562 -135.714015 -10.151001 -126.767341 -41.319677 83.857183 85.125693 106.107754 107.755783 178.882750 0.325394 202.446766 78.512622 -16.542670 -21.679879 41.748981 29.787824 -15.636262 -71.819234 -22.802807 -8.012455 35.407704 8.487592 38.034209 28.936206 -57.494681 -13.616858 0.656829 -43.847656 26.218566 6.031695 8.446497 7.616679 36.478312 -38.441022 2.402125 22.855983 16.386968 -35.434943 -40.507321
-90.798901 78.609389 23.794047 7.493523 16.240098 115.799997 -3.364061 30.771536 232.913986 6.073040 4.628052 -217.548943 -41.483847 17.131200 6.929047 194.128688 -67.157213 178.960942 478.019805 -70.683387 477.915822 -4.019373 171.802385 -77.120506 -135.008251 -9.655451 -128.547452 -42.287549 84.065176 86.732618 105.419885 108.534937 179.562463 0.774741 202.911273 78.336348 -16.985082 -22.573140 41.866437 30.585324 -16.525388 -72.299123 -21.490890 -8.918578 33.459143 8.364887 38.910024 29.587061 -59.191068 -14.813804 4.908159 -43.002926 25.024915 10.347105 10.354068 6.075488 33.179133 -37.443978 0.500051 24.466006 16.176046 -35.929688 -38.984927
-90.703925 78.516611 25.624604 6.828362 15.564265 115.623218 -2.756434 28.820465 233.571460 5.406162 3.067526 -217.075884 -40.306514 18.215022 7.771115 196.840041 -64.544557 185.952556 487.818613 -73.065184 486.733432 -5.506281 177.017562 -77.910568 -133.904957 -9.454906 -131.243301 -43.474420 83.805376 88.202071 105.582253 108.122687 179.763052 1.258776 202.215960 77.989941 -17.282387 -21.707842 41.128121 30.591874 -16.598157 -72.680002 -20.921759 -9.075633 33.729192 8.432640 39.897908 29.784710 -58.567363 -15.899063 6.187590 -41.597136 24.031887 12.852981 11.575207 5.572547 31.488128 -37.306818 -0.971711 25.667122 16.178297 -36.882178 -38.424045
